<svg xmlns="http://www.w3.org/2000/svg" viewBox="0 0 167.07 214.1"><defs><style>.cls-1{fill:#222;}.cls-2{fill:#ee0e5a;}</style></defs><g id="Layer_2" data-name="Layer 2"><g id="Layer_1-2" data-name="Layer 1"><path class="cls-1" d="M148.57,182.28V183c-.79.73-1.23,1.81-2.34,2.38a3.69,3.69,0,0,1-1.15,1.78,14.76,14.76,0,0,1-4,3.68,3.63,3.63,0,0,0-1.84,1.65c-.17.4-.74.57-1,.9a3.82,3.82,0,0,1-.88.82,7,7,0,0,0-1.37,1.34,10.85,10.85,0,0,1-2.14,1.5c-.72.56-1.49,1.07-2.23,1.6a28.83,28.83,0,0,1-4.8,3.16,1.9,1.9,0,0,1-.52.05,7.58,7.58,0,0,1-2.64,1.88c-.24.12-.48.39-.86.28a1,1,0,0,0-.91.36,9.61,9.61,0,0,1-3.47,1.77,3.31,3.31,0,0,0-.5.24,9.76,9.76,0,0,1-1.77,1,9.72,9.72,0,0,0-1.8.89c-.35.22-.82.31-1.27.54a12.2,12.2,0,0,0-3.43.84,11.24,11.24,0,0,1-2.38.61c-.28.05-.48.22-.74.26a8.41,8.41,0,0,1-.87,0c-.5.77-1.43.94-2.19,1.44a1,1,0,0,1-.18,0,8.05,8.05,0,0,0-3.15.51c-.1,0-.19.22-.27.2-1.5-.26-2.88.72-4.36.48-.72-.11-1.16.6-1.84.51-.18.29-.48.24-.74.22-2.86-.17-5.69.35-8.55.24-.25-.23-.65-.19-.78-.46-.29-.05-.36.13-.48.22a9.46,9.46,0,0,1-2.5,0,6.8,6.8,0,0,0-3-.14,26,26,0,0,1-2.91.18,2.07,2.07,0,0,1-1-.2,3.33,3.33,0,0,0-1.69-.28c-.52,0-1.16.19-1.53,0s-1,.05-1.27-.44c-.92.19-1.7-.38-2.56-.46s-1.76,0-2.66,0c-.41-.23-.81-.62-1.25-.66a4.82,4.82,0,0,1-1.32-.33A4.71,4.71,0,0,0,60,211.2a5,5,0,0,1-2.8-1.21,2.85,2.85,0,0,1-1.72-.34,9.42,9.42,0,0,0-2.14-.64,10.94,10.94,0,0,1-2.84-1c-1.82-.9-3.64-1.83-5.51-2.62-1.13-.47-2.17-1.11-3.35-1.49a4.38,4.38,0,0,1-1.74-1.26,19.23,19.23,0,0,0-2.67-2c-.24-.19-.45-.42-.7-.6a6.26,6.26,0,0,0-1.55-.91,11.26,11.26,0,0,1-3.16-1.91c-.5-.41-1-.8-1.56-1.16,0,0-.1,0-.12,0-.85-1.1-2.21-1.59-3.12-2.62a5.85,5.85,0,0,0-.87-.76,9.54,9.54,0,0,1-2.72-3.27,8.26,8.26,0,0,1-2.58-2.35c-.71-.94-1.71-1.66-1.92-2.93a7.27,7.27,0,0,1-3.3-5c-.24-.37-.57-.63-.8-1a2.42,2.42,0,0,0-1.2-1.09,1,1,0,0,1-.52-.47c-.66-1.21-1.7-2.15-2.38-3.34A10,10,0,0,1,9.79,171a10.51,10.51,0,0,1-2.58-4.48,7.7,7.7,0,0,0-1.3-2.59,3.7,3.7,0,0,1-.86-2.51c0-.24,0-.48,0-.57a33.76,33.76,0,0,1-1.75-3.75,1.78,1.78,0,0,1-.16-.77,8,8,0,0,0-.31-2.89c-.2-.87-.06-1.71-.19-2.51a18.46,18.46,0,0,1-1.11-2.34,3.23,3.23,0,0,1-.07-.92A5.41,5.41,0,0,0,1.23,146a17.07,17.07,0,0,1-.54-2.67c-.22-1.17,0-2.36-.24-3.5-.16-.9,0-1.81-.24-2.66A15.48,15.48,0,0,1,0,133.82c0-1.11,0-2.24,0-3.36a1.6,1.6,0,0,1,.21-.75c.32-.64.18-1.41.5-2.07a.64.64,0,0,0,0-.47,4.28,4.28,0,0,1,0-3,1,1,0,0,0,0-.48,17.7,17.7,0,0,1,.28-4,5.55,5.55,0,0,1,1.16-3c-.2-.76.47-1.43.46-2.22s.47-1.5.26-2.19a4.44,4.44,0,0,0,.72-2.46c0-.23,0-.48,0-.72,0-.76-.14-1.56.48-2.2-.18-.42.36-.69.24-1.1s.4-.59.24-1a24.8,24.8,0,0,0,1.8-4.29c.43-1,.74-2,1.29-3a10.11,10.11,0,0,1,.68-2.77,5.76,5.76,0,0,1,1.93-2.86,6.55,6.55,0,0,1,1-2.77,5.79,5.79,0,0,0,1-2,9,9,0,0,1,1.53-2.84,2.9,2.9,0,0,0,.44-.9,5,5,0,0,1,.93-1.65c1.18-1.24,2.06-2.76,3.37-3.89.11-.1.22-.07.33-.09A15.78,15.78,0,0,1,22,73.19a12.81,12.81,0,0,0,1.79-2c.52-.8,1.44-1.19,2.11-1.86S27,67.8,27.73,67.18a21.55,21.55,0,0,0,1.66-2.05,23.73,23.73,0,0,1,2.69-3,6.07,6.07,0,0,0,1.28-1.25,4.68,4.68,0,0,1,1.43-1.13,2.42,2.42,0,0,0,.87-.77,6,6,0,0,1,2-2c.41-.24.58-.72.82-1.1a4.85,4.85,0,0,1,1.79-1.75c.77-.38,1.23-1.15,2-1.53.37-.18.49-.61.63-.93a5.22,5.22,0,0,1,1.49-2.14,11.17,11.17,0,0,0,2.34-2.88,3.3,3.3,0,0,1,.47-.64,20.08,20.08,0,0,1,1.53-1.53,12.91,12.91,0,0,0,2.34-2.87,8,8,0,0,1,1.39-1.82,7.19,7.19,0,0,0,1.56-1.89c.37-.64.77-1.27,1.14-1.92a10.11,10.11,0,0,1,1.16-1.29,9.08,9.08,0,0,1,1.81-3.45,2.37,2.37,0,0,0,.65-1.18,3.34,3.34,0,0,1,.46-1,3.79,3.79,0,0,0,.5-1.85,5.85,5.85,0,0,1,.94-2.48,7.27,7.27,0,0,1,.49-2.92,8.21,8.21,0,0,0,0-3.66,3.21,3.21,0,0,1,0-.82V12.42a6.5,6.5,0,0,0-1-2.95A6.25,6.25,0,0,1,59.1,4.56a5,5,0,0,1,1.32-2.68A5.83,5.83,0,0,1,63,0h2.89a4.37,4.37,0,0,1,1.47.22c.22.06.36.29.61.27s.64,0,1,0,.41.4.73.52.85.26,1,.84c.08.37.7.31.89.69A8.91,8.91,0,0,1,74.1,4.14c1,.61,1.87,1.28,2.82,1.88A7.19,7.19,0,0,1,78,7.11c.62.62,1.26,1.23,1.86,1.87s1,1.19,1.53,1.76c.74.8,1.68,1.37,2.48,2.08a17.68,17.68,0,0,1,3.28,3.41,7.79,7.79,0,0,0,1.17,1.2A6,6,0,0,1,90,20.11a.77.77,0,0,0,.31.47c1.14.71,1.66,2,2.62,2.86,0,0,.14.1.16.17a15.35,15.35,0,0,0,2,3.23,1.08,1.08,0,0,1,.16.42A2.4,2.4,0,0,0,96,28.42,6.3,6.3,0,0,1,97.49,31a2,2,0,0,0,.59,1.22c.27.21.27.75.45,1.11.37.72.86,1.4,1.17,2.15.41,1,1.21,1.89,1.37,3,.39.3.15.73.23,1.12a3.18,3.18,0,0,1,.94,2,1.25,1.25,0,0,0,.3.71,11.86,11.86,0,0,1,1.35,3.16c.3,1,.87,2,1.16,3s1.1,2.1,1.4,3.27c.11.4,0,.77.16,1.13a7,7,0,0,1,.9,2.74,2.15,2.15,0,0,0,.36.94,5.31,5.31,0,0,1,.87,3.12,1.1,1.1,0,0,0,.12.55,2.93,2.93,0,0,1,.33,1.88,6.62,6.62,0,0,1,1,3,3.51,3.51,0,0,0,.56,1.55,5.41,5.41,0,0,1,.84,3.49,11.61,11.61,0,0,0,.49,3.52,5.37,5.37,0,0,1,.93,1.77c.08.18.08.38.27.47,0,.62,0,1.23,0,1.82s.35,1.34.27,2.07,0,1.43,0,2.15c0,.18.14.28.17.41a4.23,4.23,0,0,1,.31,1.79c-.1.6.34,1.1.26,1.71a5.84,5.84,0,0,0,0,1.67,6.55,6.55,0,0,0,.5,1.59,5,5,0,0,1,.15,2.67,5.21,5.21,0,0,0,0,2.58.93.93,0,0,1,0,.23c0,1.73.54,3.46.2,5.17a37.64,37.64,0,0,0-.22,4.12c2.06-.89,3.85-2.1,5.79-3a33.91,33.91,0,0,0,3.56-1.55A5.79,5.79,0,0,0,127,96.9a6,6,0,0,1,2.49-2.53,1.29,1.29,0,0,0,.41-.43,8.17,8.17,0,0,1,2.91-2.75,2.15,2.15,0,0,0,1.09-1.31,6.14,6.14,0,0,1,1.54-2.73,9.44,9.44,0,0,0,1.25-2,9.68,9.68,0,0,0,.83-2.05,11.22,11.22,0,0,1,.9-2.51c.19-.33-.1-.8.31-1.07a6.87,6.87,0,0,1,3.37-4.15s.09,0,.11,0a.53.53,0,0,1,.51-.24c.81.14,1.59-.5,2.4-.19a10,10,0,0,0,2.22.41,2.1,2.1,0,0,1,1.44.6,2.63,2.63,0,0,0,1.21.85,1.13,1.13,0,0,1,.46.34c.62.61,1.25,1.23,1.86,1.86a3.64,3.64,0,0,1,.88,1.84,4.19,4.19,0,0,1,1.25,1.72,16.42,16.42,0,0,0,2.05,3.22c.33.48.26,1.12.74,1.5s.59.89,1,1.29.21.7.39,1a9.41,9.41,0,0,0,1,2.08,1.87,1.87,0,0,1,.33.95c.22.83.73,1.53,1,2.36a4.09,4.09,0,0,0,.46,1.49,6.67,6.67,0,0,1,.69,1.39,28.92,28.92,0,0,1,1.32,3.53,5.4,5.4,0,0,1,.3,1.8,9.84,9.84,0,0,0,.62,3.35,3.61,3.61,0,0,1,.09.79,6.85,6.85,0,0,0,.47,2.69c0,.1,0,.24,0,.35.09.45-.14.9.21,1.36.22.3-.12.83.25,1.22.12.12,0,.46,0,.7a9,9,0,0,0,.42,2.35,4.62,4.62,0,0,1,.06,1.29,8.6,8.6,0,0,0,.44,3.06c.16.44.06,1,.26,1.45.13.3-.05.67.24,1a7.31,7.31,0,0,1-.46,2.67c-.08.26.28.33.25.62A4.53,4.53,0,0,0,167,128a1.45,1.45,0,0,1,.07.45c0,.88,0,1.76,0,2.64,0,.46-.5.9-.2,1.31s.16.67.2,1a5.53,5.53,0,0,1-.37,2.24,4.28,4.28,0,0,0,0,1.85c0,.1.13.18.18.24a4.84,4.84,0,0,0-.32,3.26,2.48,2.48,0,0,1,0,1.61,6.72,6.72,0,0,0-.39,2.36,3.23,3.23,0,0,0,.26.74c0,.2-.17.25-.23.38a.36.36,0,0,0,.17.41c.08.19-.2.21-.18.36.15,1-.44,1.92-.48,2.92,0,.36-.53.42-.46.76s-.46.61-.21.83-.09.44-.07.67c.18,1.6-.42,3.09-.7,4.62,0,.11,0,.23-.09.32-.7.61-.66,1.49-.87,2.28,0,.08,0,.21,0,.24-.64.47-.43,1.27-.73,1.86a10.5,10.5,0,0,1-1,1.52,1.86,1.86,0,0,0-.44.89,3,3,0,0,1-.47,1.26c-.62,1-.94,2.23-1.87,3.06a.93.93,0,0,0-.31.59c0,1.18-.79,2-1.34,2.92a7.85,7.85,0,0,1-.92,1.66,6.26,6.26,0,0,0-1.1,1.48c-.25.47-.73.7-1,1.15a1.42,1.42,0,0,1-.45,1.13l-.17.17a12,12,0,0,1-1.2,1.17c-.45.33-.38.88-.72,1.29a6.74,6.74,0,0,1-2.63,2.34C148.78,182,148.69,182.17,148.57,182.28ZM117.44,191c.48-.32.73-.71,1.15-1a40.69,40.69,0,0,0,5.13-3.3,9.55,9.55,0,0,1,1.5-1c.71-.41,1.13-1.15,1.9-1.48,1-.43,1.47-1.49,2.43-1.95.49-.82,1.31-1.36,1.83-2.13.29-.44.83-.57,1-1,.29-.65.88-1,1.29-1.5.67-.84,1.63-1.35,2.37-2.12a4.28,4.28,0,0,1,1.45-1.15c0-.57.41-1,.25-1.55.2-.08.43-.11.46-.2a3.56,3.56,0,0,1,1.68-1.94,2.3,2.3,0,0,0,.87-1.06,16.82,16.82,0,0,1,1.5-2.51c.15-.2.22-.46.45-.63a1.35,1.35,0,0,0,.57-.84,3.86,3.86,0,0,1,1.19-2.38l1.2-1.21a6.55,6.55,0,0,1,.72-2.2,14.76,14.76,0,0,0,1.31-2.45,37.43,37.43,0,0,1,1.54-4,6.14,6.14,0,0,0,.54-2.9c0-.36-.17-.8.2-1.11-.1-.63.42-1.15.25-1.73.22-.11.42,0,.49-.22a2.93,2.93,0,0,0,.25-1.22,4,4,0,0,1,.44-2.57c-.14-.62.6-1.21,0-1.83.12-.68-.28-1.43.24-2.06,0-1.15.65-2.21.49-3.4a11.59,11.59,0,0,1,0-1.56,7.14,7.14,0,0,0,0-1.67,6.9,6.9,0,0,1,0-1.37c0-.2,0-.41,0-.6a4.14,4.14,0,0,1,0-2.44,1.42,1.42,0,0,0,0-.94,1.31,1.31,0,0,1,0-1.41,1.08,1.08,0,0,0,0-1c-.18-.27-.1-.52-.18-.77a7.45,7.45,0,0,1-.24-2.3c0-.09-.15-.18-.22-.26s.26-.18.23-.39,0-.31,0-.47,0-.4,0-.6-.32-.14-.11-.34a.32.32,0,0,0,.09-.41,7.4,7.4,0,0,1-.42-2.46,4.65,4.65,0,0,0-.54-2.3,3.34,3.34,0,0,1-.43-1.86c.05-.38-.18-.65-.28-1a.37.37,0,0,0,.26-.55c-.39-.67-.15-1.38-.23-2a4.75,4.75,0,0,1-.73-2.17,8.81,8.81,0,0,0-.28-1.93c-.28-1.15-.61-2.3-1-3.42a28.58,28.58,0,0,0-1.12-3.62,3.48,3.48,0,0,1-.53-1.84c-.38.37-.61.78-1,.9s-.49.46-.64.71a11.63,11.63,0,0,1-3.39,3.86,1.68,1.68,0,0,0-.55.73,4.36,4.36,0,0,1-.9,1.18c-.6.64-1.22,1.27-1.87,1.86a6,6,0,0,1-2.3,1.38,7.53,7.53,0,0,0-2.13,1.2c-.82.59-1.49,1.39-2.29,2a15.07,15.07,0,0,1-1.53,1.24,20.13,20.13,0,0,1-3.18,1.6,11.89,11.89,0,0,0-2.74,1.2,6.21,6.21,0,0,1-1.62.72,9,9,0,0,0-2.6,1.28,3,3,0,0,1-2.05.82c-.4.42-1,.11-1.42.33s-.86.45-1.3.63a9,9,0,0,1-4,1c-1-.07-2.08,0-3.12,0a4.62,4.62,0,0,1-1.7-.25,7.06,7.06,0,0,1-4.89-4.78c-.15-.51,0-1.05-.33-1.55a2.65,2.65,0,0,1-.27-1.56,11.57,11.57,0,0,0,0-2.28,6,6,0,0,1,0-3.51,5,5,0,0,0,.22-1.11,14.71,14.71,0,0,0-.25-2.66,2.65,2.65,0,0,0-.23-1.35,3.13,3.13,0,0,1-.26-1.58,3.56,3.56,0,0,0-.06-1.17,6.39,6.39,0,0,1,0-3.07c.14-.59.52-1.22.23-1.8a3.54,3.54,0,0,1-.2-1.6,1.71,1.71,0,0,0-.49-1.37c0-1,0-2,0-3s-.49-2-.2-3c-1-1.12-.94-2.55-1.23-3.85a6.85,6.85,0,0,1,0-1.92c0-.67-.37-1.25-.26-1.94a9.75,9.75,0,0,0,0-1.43,1.67,1.67,0,0,1-.25-.38,22.72,22.72,0,0,0-1.43-3.37,3.6,3.6,0,0,1-.48-2.08c0-.32,0-.64,0-1s-.18-.51-.28-.73c-.24-.55-.14-1.18-.52-1.7a7.57,7.57,0,0,1-1.12-3.37,8.14,8.14,0,0,0-.79-3c-.2-.5-.44-1-.63-1.53a15.68,15.68,0,0,0-.72-1.87,3.3,3.3,0,0,1-.5-2,1,1,0,0,0-.21-.63,4.68,4.68,0,0,1-.5-1.35,4.87,4.87,0,0,0-.71-1.51A4.24,4.24,0,0,1,89,48.33a2.53,2.53,0,0,0-.61-1.53,3.57,3.57,0,0,1-.91-1.67,11.08,11.08,0,0,0-.76-1.73,3.87,3.87,0,0,1-.57-2.17,11.11,11.11,0,0,1-1-3.07,6.88,6.88,0,0,1-2.32-3.09,2,2,0,0,0-.24-.38,9,9,0,0,1-1.48-2.87,2.4,2.4,0,0,0-.54-.86,21.34,21.34,0,0,1-1.7-2.41,5.19,5.19,0,0,0-.69-.91A12.18,12.18,0,0,1,75.91,25a7,7,0,0,1-.89,3,.77.77,0,0,0-.13.43,10.33,10.33,0,0,1-.64,2.5,19.36,19.36,0,0,1-.7,2,7.25,7.25,0,0,1-.81,2s0,.08,0,.11a5.31,5.31,0,0,1-1.35,2.68c-.16.13-.16.35-.23.51a9,9,0,0,1-2.49,3.39,1.46,1.46,0,0,1-.43,1.15c-.77.9-1.19,2.07-2.11,2.85-.1.09-.07.22-.12.31a9.09,9.09,0,0,1-2.25,3,4.66,4.66,0,0,0-1.21,1.66,5,5,0,0,1-1.08,1.59c-.88.87-1.76,1.74-2.63,2.63a2,2,0,0,1-.69.48,8.64,8.64,0,0,1-4.73,4.75,5.09,5.09,0,0,1-.63,1c-1.08,1.1-2,2.39-3.13,3.39a1.76,1.76,0,0,0-.33.34,10,10,0,0,1-2.7,2.71,3.6,3.6,0,0,0-1,1c-.43.69-1,1.25-1.49,1.9a6,6,0,0,1-1,1c-.32.27-.48.77-1,.77a2.53,2.53,0,0,1-.85,1.09,13.84,13.84,0,0,1-2.27,2c-.58.35-.79,1.05-1.28,1.5a10.93,10.93,0,0,0-1.5,1.89,5.06,5.06,0,0,1-1.84,1.72c-.64,1.52-1.88,2.59-2.76,3.91a3.61,3.61,0,0,1-1.55,1.11A45,45,0,0,1,25,93.76v.59a8.44,8.44,0,0,1-1.69,2.52,3.47,3.47,0,0,1-.21,1.35,8.78,8.78,0,0,1-1.13,2.66c-.27.4-.78.8-.57,1.43-.42.19-.15.63-.37.94a3.26,3.26,0,0,0-.59,2.41A13.29,13.29,0,0,0,19,109c-.08.28-.33.5-.28.85a1.86,1.86,0,0,1,0,.94c-.47,1-.71,2.16-1.62,2.84a8.53,8.53,0,0,1-.24,2.74c-.31.8-.54,1.62-.86,2.41-.08.19-.17.42-.1.54.43.67.14,1.39.23,2.07a3.11,3.11,0,0,1-.4,1.52c-.2.53.1,1.11-.17,1.6a4.58,4.58,0,0,0-.4,2.24c0,.53.17,1.08-.21,1.6a.94.94,0,0,0,.09.78,5,5,0,0,1,.4,2,19.27,19.27,0,0,1-.29,2.3c-.12,1.95.39,3.85.26,5.79,0,.07,0,.18,0,.23.56.66.09,1.49.38,2.24a7.43,7.43,0,0,1,.09,2.37,3,3,0,0,0,.23,1.46,3.13,3.13,0,0,1,.26,1.58c0,.38-.16.84.08,1.15s.12.65.35,1,0,.76,0,1.07a10,10,0,0,1,1.2,3.2c.78.9.77,2.17,1.44,3.16v1.15a2,2,0,0,1,.5,1.13,3.94,3.94,0,0,0,.44,1.49c.5.74.81,1.59,1.34,2.33a6,6,0,0,1,1.12,3,5,5,0,0,1,1.4,1.92c.13.27.19.62.39.79a4.43,4.43,0,0,1,1,1.62c.31.64.58,1.28.95,1.89.12.19.23.52.39.53.5.06.6.45.73.78.35.87,1,1.59,1.35,2.44a3,3,0,0,0,1.13,1.45c.85.46,1.18,1.33,1.69,2.05a5.47,5.47,0,0,0,.41.54c.57.65,1.23,1.22,1.79,1.89a9.7,9.7,0,0,0,1.83,1.73c.68.47,1.2,1.15,1.87,1.59,1.24.79,2.36,1.76,3.64,2.48a21.84,21.84,0,0,1,2.19,1.39,1.45,1.45,0,0,0,.93.29c.46.45.84,1.1,1.46,1.13a4,4,0,0,1,2,1,4.4,4.4,0,0,0,1.74.71c.57.06,1,.43,1.47.55a2.81,2.81,0,0,1,1.42.64c.4.36,1.12.24,1.47.77.53-.07.89.42,1.36.47a3.41,3.41,0,0,1,1.7.53c.55.4,1.22.33,1.77.67a1.74,1.74,0,0,0,1.21.26,2.1,2.1,0,0,1,.43,0l.46.47c.33.08.74-.14,1,.25s.76.09,1.24.45a2.26,2.26,0,0,0,.18.27c1,0,2-.15,2.9.46,0,0,.15,0,.23,0a8.71,8.71,0,0,1,2.83.7,6.2,6.2,0,0,0,1.2.31,18.84,18.84,0,0,1,1.93.24c.47.16.94.06,1.35.22a2.44,2.44,0,0,0,1.34.2c.51-.1.88.25,1.35.26,1.65.05,3.29,0,4.94.19a60.59,60.59,0,0,0,8.3-.2c.11,0,.27,0,.33,0,.38-.39.84-.18,1.25-.18s.76-.35,1.22-.27a2,2,0,0,0,1.23-.2c.39-.2,1,.19,1.33-.27.75.16,1.42-.37,2.18-.25a1.78,1.78,0,0,0,1-.19,3.35,3.35,0,0,1,1.81-.28,1.61,1.61,0,0,0,1.48-.47c.53,0,1.09.11,1.58-.25,1.18.24,2-.67,3.12-.88a.73.73,0,0,0,.5-.22,4.75,4.75,0,0,1,2.1-1.3,4.06,4.06,0,0,1,2-.48A19.51,19.51,0,0,1,114,193c.18-.06.39,0,.52-.2.34-.5.92-.7,1.36-1.08A2.43,2.43,0,0,1,117.44,191Z"/><path class="cls-2" d="M117.44,191a2.43,2.43,0,0,0-1.52.66c-.44.38-1,.58-1.36,1.08-.13.19-.34.14-.52.2a19.51,19.51,0,0,0-3.12,1.42,4.06,4.06,0,0,0-2,.48,4.75,4.75,0,0,0-2.1,1.3.73.73,0,0,1-.5.22c-1.07.21-1.94,1.12-3.12.88-.49.36-1,.22-1.58.25a1.61,1.61,0,0,1-1.48.47,3.35,3.35,0,0,0-1.81.28,1.78,1.78,0,0,1-1,.19c-.76-.12-1.43.41-2.18.25-.38.46-.94.07-1.33.27a2,2,0,0,1-1.23.2c-.46-.08-.78.28-1.22.27s-.87-.21-1.25.18c-.06.06-.22,0-.33,0a60.59,60.59,0,0,1-8.3.2c-1.65-.18-3.29-.14-4.94-.19-.47,0-.84-.36-1.35-.26a2.44,2.44,0,0,1-1.34-.2c-.41-.16-.88-.06-1.35-.22a18.84,18.84,0,0,0-1.93-.24,6.2,6.2,0,0,1-1.2-.31,8.71,8.71,0,0,0-2.83-.7c-.08,0-.18,0-.23,0-.87-.61-1.86-.43-2.9-.46a2.26,2.26,0,0,1-.18-.27c-.48-.36-1,0-1.24-.45s-.64-.17-1-.25l-.46-.47a2.1,2.1,0,0,0-.43,0,1.74,1.74,0,0,1-1.21-.26c-.55-.34-1.22-.27-1.77-.67a3.41,3.41,0,0,0-1.7-.53c-.47,0-.83-.54-1.36-.47-.35-.53-1.07-.41-1.47-.77a2.81,2.81,0,0,0-1.42-.64c-.51-.12-.9-.49-1.47-.55a4.4,4.4,0,0,1-1.74-.71,4,4,0,0,0-2-1c-.62,0-1-.68-1.46-1.13a1.45,1.45,0,0,1-.93-.29,21.84,21.84,0,0,0-2.19-1.39c-1.28-.72-2.4-1.69-3.64-2.48-.67-.44-1.19-1.12-1.87-1.59a9.7,9.7,0,0,1-1.83-1.73c-.56-.67-1.22-1.24-1.79-1.89a5.47,5.47,0,0,1-.41-.54c-.51-.72-.84-1.59-1.69-2.05a3,3,0,0,1-1.13-1.45c-.4-.85-1-1.57-1.35-2.44-.13-.33-.23-.72-.73-.78-.16,0-.27-.34-.39-.53-.37-.61-.64-1.25-.95-1.89a4.43,4.43,0,0,0-1-1.62c-.2-.17-.26-.52-.39-.79a5,5,0,0,0-1.4-1.92,6,6,0,0,0-1.12-3c-.53-.74-.84-1.59-1.34-2.33a3.94,3.94,0,0,1-.44-1.49,2,2,0,0,0-.5-1.13v-1.15c-.67-1-.66-2.26-1.44-3.16a10,10,0,0,0-1.2-3.2c0-.31.15-.82,0-1.07s-.11-.67-.35-1-.09-.77-.08-1.15a3.13,3.13,0,0,0-.26-1.58,3,3,0,0,1-.23-1.46,7.43,7.43,0,0,0-.09-2.37c-.29-.75.18-1.58-.38-2.24,0-.05,0-.16,0-.23.13-1.94-.38-3.84-.26-5.79a19.27,19.27,0,0,0,.29-2.3,5,5,0,0,0-.4-2,.94.94,0,0,1-.09-.78c.38-.52.2-1.07.21-1.6a4.58,4.58,0,0,1,.4-2.24c.27-.49,0-1.07.17-1.6a3.11,3.11,0,0,0,.4-1.52c-.09-.68.2-1.4-.23-2.07-.07-.12,0-.35.1-.54.32-.79.55-1.61.86-2.41a8.53,8.53,0,0,0,.24-2.74c.91-.68,1.15-1.83,1.62-2.84a1.86,1.86,0,0,0,0-.94c0-.35.2-.57.28-.85a13.29,13.29,0,0,1,1.41-3.35,3.26,3.26,0,0,1,.59-2.41c.22-.31-.05-.75.37-.94-.21-.63.3-1,.57-1.43a8.78,8.78,0,0,0,1.13-2.66,3.47,3.47,0,0,0,.21-1.35A8.44,8.44,0,0,0,25,94.35v-.59a45,45,0,0,0,5.11-8.25,3.61,3.61,0,0,0,1.55-1.11c.88-1.32,2.12-2.39,2.76-3.91a5.06,5.06,0,0,0,1.84-1.72,10.93,10.93,0,0,1,1.5-1.89c.49-.45.7-1.15,1.28-1.5a13.84,13.84,0,0,0,2.27-2,2.53,2.53,0,0,0,.85-1.09c.52,0,.68-.5,1-.77a6,6,0,0,0,1-1c.49-.65,1.06-1.21,1.49-1.9a3.6,3.6,0,0,1,1-1,10,10,0,0,0,2.7-2.71,1.76,1.76,0,0,1,.33-.34c1.18-1,2.05-2.29,3.13-3.39a5.09,5.09,0,0,0,.63-1,8.64,8.64,0,0,0,4.73-4.75,2,2,0,0,0,.69-.48c.87-.89,1.75-1.76,2.63-2.63a5,5,0,0,0,1.08-1.59A4.66,4.66,0,0,1,63.75,49a9.09,9.09,0,0,0,2.25-3c0-.09,0-.22.12-.31.92-.78,1.34-2,2.11-2.85a1.46,1.46,0,0,0,.43-1.15,9,9,0,0,0,2.49-3.39c.07-.16.07-.38.23-.51A5.31,5.31,0,0,0,72.73,35s0-.08,0-.11a7.25,7.25,0,0,0,.81-2,19.36,19.36,0,0,0,.7-2,10.33,10.33,0,0,0,.64-2.5.77.77,0,0,1,.13-.43,7,7,0,0,0,.89-3,12.18,12.18,0,0,0,2.26,2.61,5.19,5.19,0,0,1,.69.91A21.34,21.34,0,0,0,80.56,31a2.4,2.4,0,0,1,.54.86,9,9,0,0,0,1.48,2.87,2,2,0,0,1,.24.38,6.88,6.88,0,0,0,2.32,3.09,11.11,11.11,0,0,0,1,3.07,3.87,3.87,0,0,0,.57,2.17,11.08,11.08,0,0,1,.76,1.73,3.57,3.57,0,0,0,.91,1.67A2.53,2.53,0,0,1,89,48.33a4.24,4.24,0,0,0,.77,1.73,4.87,4.87,0,0,1,.71,1.51,4.68,4.68,0,0,0,.5,1.35,1,1,0,0,1,.21.63,3.3,3.3,0,0,0,.5,2,15.68,15.68,0,0,1,.72,1.87c.19.51.43,1,.63,1.53a8.14,8.14,0,0,1,.79,3A7.57,7.57,0,0,0,95,65.31c.38.52.28,1.15.52,1.7.1.22.3.45.28.73s0,.64,0,1a3.6,3.6,0,0,0,.48,2.08,22.72,22.72,0,0,1,1.43,3.37,1.67,1.67,0,0,0,.25.38,9.75,9.75,0,0,1,0,1.43c-.11.69.31,1.27.26,1.94a6.85,6.85,0,0,0,0,1.92c.29,1.3.21,2.73,1.23,3.85-.29,1,.25,2,.2,3s0,2,0,3A1.71,1.71,0,0,1,100.1,91a3.54,3.54,0,0,0,.2,1.6c.29.58-.09,1.21-.23,1.8a6.39,6.39,0,0,0,0,3.07,3.56,3.56,0,0,1,.06,1.17,3.13,3.13,0,0,0,.26,1.58,2.65,2.65,0,0,1,.23,1.35,14.71,14.71,0,0,1,.25,2.66,5,5,0,0,1-.22,1.11,6,6,0,0,0,0,3.51,11.57,11.57,0,0,1,0,2.28,2.65,2.65,0,0,0,.27,1.56c.33.5.18,1,.33,1.55a7.06,7.06,0,0,0,4.89,4.78,4.62,4.62,0,0,0,1.7.25c1,0,2.08-.06,3.12,0a9,9,0,0,0,4-1c.44-.18.86-.42,1.3-.63s1,.09,1.42-.33a3,3,0,0,0,2.05-.82,9,9,0,0,1,2.6-1.28,6.21,6.21,0,0,0,1.62-.72,11.89,11.89,0,0,1,2.74-1.2,20.13,20.13,0,0,0,3.18-1.6,15.07,15.07,0,0,0,1.53-1.24c.8-.64,1.47-1.44,2.29-2a7.53,7.53,0,0,1,2.13-1.2,6,6,0,0,0,2.3-1.38c.65-.59,1.27-1.22,1.87-1.86a4.36,4.36,0,0,0,.9-1.18,1.68,1.68,0,0,1,.55-.73,11.63,11.63,0,0,0,3.39-3.86c.15-.25.24-.57.64-.71s.57-.53,1-.9a3.48,3.48,0,0,0,.53,1.84,28.58,28.58,0,0,1,1.12,3.62c.37,1.12.7,2.27,1,3.42a8.81,8.81,0,0,1,.28,1.93,4.75,4.75,0,0,0,.73,2.17c.08.62-.16,1.33.23,2a.37.37,0,0,1-.26.55c.1.39.33.66.28,1a3.34,3.34,0,0,0,.43,1.86,4.65,4.65,0,0,1,.54,2.3,7.4,7.4,0,0,0,.42,2.46.32.32,0,0,1-.09.41c-.21.2.1.23.11.34s0,.4,0,.6,0,.32,0,.47-.17.25-.23.39.22.17.22.26a7.45,7.45,0,0,0,.24,2.3c.08.25,0,.5.18.77a1.08,1.08,0,0,1,0,1,1.31,1.31,0,0,0,0,1.41,1.42,1.42,0,0,1,0,.94,4.14,4.14,0,0,0,0,2.44c0,.19,0,.4,0,.6a6.9,6.9,0,0,0,0,1.37,7.14,7.14,0,0,1,0,1.67,11.59,11.59,0,0,0,0,1.56c.16,1.19-.45,2.25-.49,3.4-.52.63-.12,1.38-.24,2.06.57.62-.17,1.21,0,1.83a4,4,0,0,0-.44,2.57,2.93,2.93,0,0,1-.25,1.22c-.07.18-.27.11-.49.22.17.58-.35,1.1-.25,1.73-.37.31-.24.75-.2,1.11a6.14,6.14,0,0,1-.54,2.9,37.43,37.43,0,0,0-1.54,4,14.76,14.76,0,0,1-1.31,2.45,6.55,6.55,0,0,0-.72,2.2l-1.2,1.21a3.86,3.86,0,0,0-1.19,2.38,1.35,1.35,0,0,1-.57.84c-.23.17-.3.43-.45.63a16.82,16.82,0,0,0-1.5,2.51,2.3,2.3,0,0,1-.87,1.06,3.56,3.56,0,0,0-1.68,1.94c0,.09-.26.12-.46.2.16.53-.26,1-.25,1.55a4.28,4.28,0,0,0-1.45,1.15c-.74.77-1.7,1.28-2.37,2.12-.41.52-1,.85-1.29,1.5-.19.42-.73.55-1,1-.52.77-1.34,1.31-1.83,2.13-1,.46-1.46,1.52-2.43,1.95-.77.33-1.19,1.07-1.9,1.48a9.55,9.55,0,0,0-1.5,1,40.69,40.69,0,0,1-5.13,3.3C118.17,190.33,117.92,190.72,117.44,191Z"/></g></g></svg>