<svg width="21" height="14" viewBox="0 0 21 14" fill="none" xmlns="http://www.w3.org/2000/svg">
<path d="M17.668 4.85986C17.2886 4.6884 16.9008 4.53624 16.506 4.40398C16.46 3.92059 16.3821 3.44076 16.2727 2.96767C15.6844 0.514938 14.236 0 13.125 0C11.9314 0 11.062 0.595219 10.5 1.17152C9.93803 0.595219 9.06861 0 7.875 0C6.76397 0 5.31562 0.514938 4.7273 2.96767C4.61789 3.44076 4.53996 3.92059 4.494 4.40398C4.09922 4.53624 3.71139 4.6884 3.332 4.85986C1.18333 5.83647 0 7.21809 0 8.75C0 10.2819 1.18333 11.6635 3.332 12.6401C5.26094 13.517 7.80686 14 10.5 14C13.1931 14 15.7391 13.517 17.668 12.6401C19.8167 11.6635 21 10.2819 21 8.75C21 7.21809 19.8167 5.83647 17.668 4.85986ZM16.3687 8.71248C15.1575 9.9237 12.5572 10.4311 10.261 10.4311C9.99119 10.4311 9.72508 10.4241 9.46684 10.4103C8.113 10.3387 5.67656 10.0139 4.56947 8.64369C4.44365 8.48801 4.37501 8.29391 4.375 8.09375C4.375 7.55366 4.375 7.00809 4.38473 6.4692C4.40702 6.62474 4.47084 6.77138 4.56947 6.89369C5.67656 8.26394 8.11322 8.589 9.46684 8.66031C9.72552 8.67409 9.99119 8.68109 10.261 8.68109C12.5572 8.68109 15.1575 8.1737 16.3687 6.96248C16.5024 6.82835 16.5889 6.65444 16.6153 6.46691C16.625 7.00656 16.625 7.55289 16.625 8.09375C16.625 8.20866 16.6024 8.32244 16.5584 8.42861C16.5144 8.53477 16.45 8.63123 16.3687 8.71248Z" fill="#B8B8B8"/>
</svg>
