<svg width="23" height="19" viewBox="0 0 23 19" fill="none" xmlns="http://www.w3.org/2000/svg">
<path d="M16.7583 1.03455L16.4707 1.29472V1.03455H15.0537C14.4149 1.92577 13.0662 2.54181 11.5003 2.54181C9.93499 2.54181 8.58626 1.92577 7.94742 1.03455H6.53051V1.29472L6.24232 1.03455L1.14648 5.63756L3.93389 8.15605L6.53051 5.81084V17.5379H16.4695V5.81136L19.0667 8.15657L21.8535 5.63756L16.7583 1.03455Z" fill="#B8B8B8"/>
<path d="M16.4695 18.5724H6.5305C5.89797 18.5724 5.3846 18.1089 5.3846 17.5379V8.30912L4.74404 8.8874C4.52918 9.08189 4.23755 9.19051 3.93331 9.19051C3.62965 9.19051 3.33744 9.08137 3.12259 8.8874L0.335177 6.36891C-0.111726 5.96494 -0.111726 5.31061 0.335177 4.90612L5.43216 0.303109C5.68082 0.0781048 6.04006 -0.031035 6.38612 0.00827603C6.43368 0.00310352 6.4818 0 6.5305 0H7.94741C8.33587 0 8.69855 0.177934 8.9094 0.47225C9.36031 1.10123 10.3773 1.50727 11.5003 1.50727C12.6233 1.50727 13.6408 1.10123 14.0917 0.47225C14.3026 0.177934 14.6647 0 15.0537 0H16.4706C16.5193 0 16.5675 0.00258627 16.615 0.00827603C16.662 0.00310352 16.7096 0 16.7577 0C16.7583 0 16.7583 0 16.7583 0C17.0619 0 17.3536 0.10914 17.569 0.303109L22.6648 4.90561C23.1117 5.30958 23.1117 5.9639 22.6648 6.36839L19.878 8.8874C19.6631 9.08137 19.3715 9.19051 19.0678 9.19051C19.0673 9.19051 19.0673 9.19051 19.0673 9.19051C18.7636 9.19103 18.472 9.08189 18.2571 8.88792L17.616 8.3086V17.5379C17.6154 18.1095 17.1026 18.5724 16.4695 18.5724ZM7.67641 16.5034H15.3236V5.81131C15.3236 5.39286 15.6026 5.01578 16.0306 4.85543C16.4592 4.69457 16.9514 4.78354 17.2797 5.07992L19.0661 6.69271L20.2338 5.63752L16.5675 2.32556C16.3847 2.34056 16.2048 2.3147 16.0323 2.25056C15.9126 2.20607 15.8043 2.144 15.7103 2.069H15.6118C14.6658 3.0104 13.1498 3.57627 11.5003 3.57627C9.85076 3.57627 8.3353 3.0104 7.38879 2.069H7.29024C7.19685 2.144 7.08856 2.20556 6.96881 2.25056C6.79521 2.31521 6.61072 2.33797 6.43253 2.32556L2.76564 5.63803L3.93331 6.69322L5.7192 5.07992C6.04693 4.78354 6.53967 4.69509 6.96824 4.85543C7.39681 5.01578 7.67583 5.39286 7.67583 5.81131V16.5034H7.67641Z" fill="#B8B8B8"/>
</svg>
