<svg width="17" height="17" viewBox="0 0 17 17" fill="none" xmlns="http://www.w3.org/2000/svg">
<path class="img" d="M8.49998 0C3.80557 0 0 3.80557 0 8.49998C0 13.1944 3.80557 17 8.49998 17C13.1944 17 17 13.1944 17 8.49998C16.9946 3.80778 13.1922 0.00533621 8.49998 0ZM4.25001 7.28571C4.25001 6.61509 4.79366 6.07144 5.46428 6.07144C6.1349 6.07144 6.67856 6.61509 6.67856 7.28571C6.67856 7.95633 6.1349 8.49998 5.46428 8.49998C4.79366 8.49998 4.25001 7.95633 4.25001 7.28571ZM10.7015 11.4021C9.40162 12.3946 7.59838 12.3946 6.29847 11.4021C6.0418 11.1864 6.00865 10.8034 6.22444 10.5467C6.43341 10.2981 6.80093 10.258 7.05864 10.4556C7.91723 11.0827 9.08277 11.0827 9.94137 10.4556C10.2075 10.2515 10.5886 10.3018 10.7926 10.5679C10.9902 10.8256 10.9501 11.1932 10.7015 11.4021ZM11.5357 8.49998C10.8651 8.49998 10.3214 7.95633 10.3214 7.28571C10.3214 6.61509 10.8651 6.07144 11.5357 6.07144C12.2063 6.07144 12.75 6.61509 12.75 7.28571C12.75 7.95633 12.2063 8.49998 11.5357 8.49998Z" fill="#B8B8B8"/>
</svg>
