<?xml version="1.0" encoding="utf-8"?>
<!-- Generator: Adobe Illustrator 26.0.1, SVG Export Plug-In . SVG Version: 6.00 Build 0)  -->
<svg version="1.1" xmlns="http://www.w3.org/2000/svg" xmlns:xlink="http://www.w3.org/1999/xlink" x="0px" y="0px"
	 viewBox="0 0 197 172" style="enable-background:new 0 0 197 172;" xml:space="preserve">
<style type="text/css">
	.st0{fill:#512E03;}
	.st1{fill:#FEC877;}
	.st2{fill:#ECAB49;}
	.st3{fill:#ECAA48;}
	.st4{fill:#EBAA48;}
</style>
<g id="Layer_1_xA0_Image_00000106136886798072977080000005290375754776394387_">
</g>
<g id="Layer_2_xA0_Image_00000021825185907701897450000009961542020293562291_">
	<g>
		<g>
			<path class="st0" d="M196.3,78.9c-0.2-5.7-2.1-10.9-4.9-15.7c-1.8-3.1-2.2-6.9-4.6-9.7c-3.9-4.5-6.9-9.6-12-13.1
				c-2.6-1.7-4.4-4.5-6.6-6.8c-0.4-0.5-0.7-1.3-1.2-1.5c-4.7-1.8-7.8-6-12.4-7.9c-3-1.2-6-2.7-8.3-5.2c-1.2-1.3-2.8-2.3-4.7-2.6
				c-3.5-0.5-6.6-2-9.7-3.6c-2.6-1.3-5.3-2.5-8.4-2.7c-1.3-0.1-2.6-0.4-3.8-0.9c-6.5-2.9-13.3-4.4-20.2-6c-2.7-0.6-5.4-1.3-8.1-1.8
				c-0.7-0.1-7.5-1-9.7-1c-8.3,0-6.3-0.6-14.6,0.4c-2.7,0.6-6.9,1.9-9.5,2.6c-8.1,2-16.3,4-22.5,10.1c-3,2.9-6.8,5.2-8.4,9.4
				c-0.1,0.1-0.2,0.3-0.3,0.4c-4.9,4.1-7.7,9.8-11.6,14.7c-2.6,3.2-4.3,6.9-6.3,10.5c-0.2,0.3-0.4,1.4-0.4,1.7
				c0,3.7-1.8,6.8-3.4,10.3c-1.1,2.6-1.7,5.2-2.1,8c-0.4,3.1-1.4,5.9-1.4,9.1c0,3.7-1.5,9.1-0.7,11.2c0.9,2.7,1.1,5.4,1.1,8.4
				c0.1,5.4,1.5,10.3,4,15.1c1.1,2.1,3,3.4,4.2,5.4c4.5,7.2,10.2,13.5,16.8,18.8c3.9,3.1,8,6.3,12.9,8c1.5,0.5,3,1.4,4.2,2.5
				c2.9,2.7,7.1,3.5,9.9,6.4c5.3,1.4,9.5,5,14.8,6.4c2.7,0.7,5.3,1.6,7.5,3.3c0.7,0.6,1.7,1.1,2.7,1.2c5.4,0.8,10.4,2.5,15.4,4.7
				c2.2,1,4.6,0.4,7,0.6c2,0.9,4,2,6.5,1.7c0.8-0.1,4,0.6,6.6,0.6c6.3,0,3.8-0.3,10.1-0.3c1.3,0.1,4.6-0.2,5.4-0.3
				c9.1-1.1,18-3.2,25.9-8c6.4-3.9,12.4-8.4,15.4-15.9c0.5-1.2,1.6-2.1,2.3-3.2c0.6-1,1.1-2,1.6-3c2.5-4.9,4.8-9.9,7.3-14.8
				c3.1-5.9,6-11.9,9-17.9c0.7-1.5,1.3-2.9,1.7-4.5c0.9-3.4,1.6-5,2.4-8.6c0-5,0.8-7.5,0.8-12.5C196.2,82.8,196.3,79.1,196.3,78.9z"
				/>
			<path class="st1" d="M165.4,105.4c-7.2,5.6-16.2,6.6-24.3,9.8c-6.2-0.5-12.5,0.9-18.8-0.7c-2.9-0.7-6-1.3-9.2-1.4
				c-3.9-0.1-7.4-2.4-10.9-3.8c-3.6-1.5-7-3.2-10.9-4.2c-3.2-0.8-6.1-3-8.8-5c-4.1-3-8.5-5.7-11.8-9.7c-1.1-1.3-2.8-1.6-4.5-2.5
				c-1.3-1.8-2.5-3.8-4.8-5.1c-2.2-1.3-4.2-3.3-5.1-5.9c-0.4-1-0.9-1.7-1.6-2.5c-3.5-3.9-5.2-8.7-7.2-13.3c-1-2.2-1.8-4.5-1.5-7.1
				c0.2-2,0.2-4,0-6c-0.8-6.8,2.3-12,6.7-16.7c0.1-0.1,0.3-0.2,0.4-0.3c4.4-5.4,10.2-7.8,16.9-8.6c0.8-0.1,1.5-0.6,2.1-0.9
				c1.7-0.2,2.8,1.2,4.5,1c6.8-0.9,13.3,1.6,20,2c0.8,0,1.5,0.7,2.3,0.9c3.5,0.6,6.8,2.5,10.5,2.2c1.3-0.1,2.2,0.6,3.3,1
				c5.7,2.1,11.2,5,17.2,6.4c1.2,0.3,2.5,0.8,3.3,2c0.7,1,1.8,1.4,2.8,1.9c7.4,3.7,14,8.7,19.7,14.7c2.2,2.3,5.1,3.7,7.1,6.2
				c3.2,4,5.5,8.3,7.6,12.9c1.8,4,3.1,8.1,2.7,12.2c-0.3,3.4-0.5,6.9-1.1,10.3c-0.3,2-0.9,4.4-3.3,5.7
				C166.8,101.6,166.6,103.9,165.4,105.4z"/>
			<path class="st2" d="M109.6,135.1c-1.9,3.9-3.5,7.7-4.6,11.9c-9.1-1.8-17.7-4.6-26.1-8.8c1.9-4.3,5.4-7.3,6.8-11.8
				C93.5,129.2,101.3,132,109.6,135.1z"/>
			<path class="st3" d="M39.2,92.7c-0.9,2.3-2.7,4.2-4.2,6.5c0,1,0,2.2,0,3.2c-1,1.8-3.1,2.7-3.5,5.5c-5.3-6.1-6.3-13.3-9.5-19.6
				c0.2-7-1.1-14.2,2.6-20.9c3.1,3.8,3.8,8.8,6.3,12.9C33.6,84.4,36.2,88.2,39.2,92.7z"/>
			<path class="st2" d="M53.6,105.5c3,2.8,5.6,5.7,9.3,7.4c2.8,1.3,5,4,7.3,5.9c-1.2,5-4.8,8.3-6.6,12.6
				c-6.5-3.5-12.5-7.3-18.1-11.8C46.1,117.3,51.5,107.8,53.6,105.5z"/>
			<path class="st4" d="M128.8,136.4c2.7,0,5.6-0.3,8.4,0.1c2.6,0.4,5.3,0.4,7.4-0.5c2.7-1.2,5.7,0.6,8.2-2.6
				c-0.4,4.8-4.6,5.8-5.2,9.1c-5,2.7-10.5,3.8-15.4,6.8c-2.9-0.7-6.4,1.4-9.1-1.5C124.6,143.7,126,139.7,128.8,136.4z"/>
		</g>
		<g>
			<path class="st0" d="M98.1,33.3c1,0,2,0,3,0c-0.1,0.6,0.3,1,0.8,1c2.6,0,4.8,1.3,7,2.4c2.5,1.2,4.9,2.5,7.9,2.7
				c1.5,0.1,3.4,0.5,4.3,1.5c1.8,2.1,4.5,2.2,6.5,3.6c1.2,0.9,2.6,0.3,3.5,1.3c2,2.3,5.2,2.8,7.6,4.5c1.9,1.2,4.1,2.3,6.2,3
				c2.7,0.9,2.9,3.7,4.8,5.1c0.1,0.1,0.3,0,0.5,0c0,1.7,0,3.3,0,5c-0.6-0.1-0.8,0.3-1,0.8c-1,2.1-2.6,3.2-4.7,4.4
				c-3.4,1.8-6.4,0.4-9-0.7c-3.8-1.5-7.6-3.4-11.1-5.8c-2.3-1.6-4.9-3-8-3.9c0.8,2.6,1.3,4.8,2.1,6.9c0.9,2.4,0.1,7.1-2.2,8.2
				c-1.3,0.6-1.8,2.5-3.6,2.2c-3.3-0.6-6.3,0.9-9.5,1.3c1.1,1.3,2,2.5,3.8,2.9c0.9,0.2,1.8,0.7,2.4,1.4c2.1,2.5,5.1,3.7,7.8,5.4
				c3.7,2.2,6.6,5.2,6.1,10.1c-0.1,0.8,0,1.6,0,2.3c-1.1,1.1-2.2,1.9-2.9,3c-0.8,1.3-2.9-0.6-3.1,1.5c-2,0-4,0-6,0
				c-0.2-1.9-1.9-0.6-2.7-1.2c-4.8-3.3-9.5-6.6-14.2-10.1c-3.5-2.6-6.9-5.4-10.5-7.9c-5.7-3.9-11.4-8.1-15.6-13.8c0-1.3,0-2.7,0-4
				c1.8-2,3.6-4,5.4-6.1c2.4,0.9,4.2-1.2,6.6-0.9c2.5,0.3,5,0.1,7.5,0.1c1.8,0,3.7-0.1,5.5,0c1.4,0.1,2.2-0.5,2.9-1.4
				c-1.5-1.6-0.8-3.8-1.8-5.7c-2-3.5-2.6-7.6-2-11.6c0.3-2.2,1-4.6,3.2-6.2C96.2,33.9,97.9,35.3,98.1,33.3z"/>
		</g>
	</g>
</g>
</svg>
