<?xml version="1.0" encoding="utf-8"?>
<svg viewBox="0 0 31 31" width="31" height="31" style="enable-background:new 0 0 31 31;" xmlns="http://www.w3.org/2000/svg">
  <g>
    <path d="M 7.65 20.28 C 7.72 19.91 7.5 19.57 7.58 19.26 C 7.45 18.93 7.27 18.7 7.04 18.53 C 7.09 18.34 6.95 18.24 6.84 18.18 C 6.66 18.08 6.53 17.95 6.43 17.78 C 6.39 17.72 6.35 17.66 6.27 17.64 C 6.16 17.62 6.1 17.52 6.05 17.44 C 5.96 17.28 5.81 17.18 5.67 17.08 C 5.67 17.02 5.67 16.97 5.67 16.92 C 5.51 16.84 5.4 16.73 5.32 16.57 C 5.24 16.42 5.05 16.37 4.91 16.27 C 4.87 16.24 4.81 16.2 4.76 16.17 C 4.61 16.07 4.57 15.89 4.44 15.77 C 4.33 15.66 4.18 15.57 4.13 15.41 C 4.11 15.36 4.05 15.31 4.01 15.27 C 3.79 15.08 3.61 14.86 3.45 14.62 C 3.3 14.39 3.09 14.21 2.9 14.02 C 2.73 13.84 2.59 13.62 2.39 13.46 C 2.2 13.31 2 13.1 1.88 12.88 C 1.7 12.58 1.39 12.44 1.17 12.19 C 1.13 11.92 1.25 11.7 1.35 11.46 C 1.74 11.52 2.11 11.34 2.5 11.39 C 2.6 11.4 2.68 11.33 2.77 11.3 C 2.99 11.22 3.19 11.19 3.4 11.29 C 3.45 11.32 3.52 11.32 3.58 11.3 C 3.8 11.25 4.01 11.2 4.24 11.23 C 4.37 11.05 4.63 11.28 4.72 11.06 C 4.97 11.19 5.2 11.18 5.43 11.11 C 5.47 11.1 5.51 11.07 5.57 11.07 C 5.94 11.1 6.31 11.02 6.68 11 C 6.83 10.99 6.95 10.88 7.11 10.91 C 7.25 10.93 7.39 10.92 7.53 10.91 C 7.57 10.91 7.61 10.86 7.67 10.82 C 7.75 10.95 7.92 10.96 8 10.91 C 8.12 10.82 8.24 10.84 8.36 10.85 C 8.68 10.88 9 10.8 9.31 10.69 C 9.46 10.64 9.59 10.61 9.74 10.62 C 10.03 10.64 10.29 10.52 10.55 10.46 C 10.77 10.41 10.99 10.16 11.16 9.83 C 11.33 9.51 11.54 9.2 11.62 8.84 C 11.79 8.68 11.81 8.46 11.89 8.27 C 11.97 8.07 12.17 7.93 12.25 7.73 C 12.38 7.42 12.53 7.11 12.69 6.81 C 12.86 6.49 12.99 6.14 13.21 5.84 C 13.33 5.68 13.37 5.45 13.45 5.25 C 13.52 5.05 13.6 4.85 13.77 4.69 C 13.91 4.56 14 4.41 13.99 4.21 C 13.98 4.03 14.11 3.9 14.19 3.76 C 14.26 3.64 14.34 3.52 14.4 3.39 C 14.55 3.06 14.76 2.78 14.94 2.47 C 15 2.36 15.09 2.25 15.08 2.11 C 15.15 2.06 15.23 2.08 15.3 2.09 C 15.38 2.09 15.38 1.99 15.48 2.02 C 15.61 2.07 15.73 2.2 15.93 2.17 C 15.98 2.49 16.21 2.71 16.23 3.03 C 16.24 3.19 16.44 3.32 16.5 3.49 C 16.55 3.66 16.6 3.82 16.69 3.99 C 16.8 4.22 16.97 4.44 16.98 4.71 C 16.98 4.81 17.04 4.88 17.07 4.94 C 17.25 5.23 17.34 5.57 17.56 5.85 C 17.64 5.96 17.62 6.12 17.66 6.26 C 17.69 6.35 17.7 6.45 17.75 6.53 C 17.95 6.81 17.99 7.19 18.28 7.4 C 18.28 7.45 18.27 7.5 18.28 7.53 C 18.51 7.93 18.67 8.36 18.88 8.84 C 18.86 9 18.92 9.19 19.09 9.37 C 19.18 9.46 19.2 9.6 19.28 9.71 C 19.59 10.08 20 10.22 20.46 10.26 C 20.53 10.27 20.6 10.25 20.67 10.32 C 20.71 10.36 20.8 10.36 20.84 10.32 C 21.02 10.18 21.21 10.25 21.35 10.35 C 21.44 10.42 21.55 10.37 21.62 10.44 C 21.71 10.53 21.82 10.5 21.9 10.48 C 22.04 10.45 22.12 10.58 22.25 10.57 C 22.35 10.56 22.46 10.54 22.57 10.62 C 22.63 10.67 22.77 10.65 22.86 10.64 C 22.97 10.62 23.02 10.75 23.13 10.72 C 23.32 10.68 23.48 10.82 23.67 10.8 C 23.76 10.79 23.82 10.73 23.9 10.72 C 24.07 10.84 24.31 10.77 24.47 10.95 C 24.6 10.95 24.74 10.97 24.87 10.95 C 24.98 10.93 25.08 11.08 25.19 10.96 C 25.22 10.93 25.25 11 25.28 11.01 C 25.46 11.04 25.62 11.16 25.81 11.11 C 25.97 11.07 26.08 11.22 26.24 11.19 C 26.38 11.17 26.54 11.15 26.64 11.28 C 26.7 11.24 26.74 11.21 26.77 11.19 C 27.19 11.36 27.62 11.41 28.06 11.43 C 28.1 11.48 28.15 11.52 28.19 11.57 C 28.35 11.61 28.54 11.53 28.69 11.66 C 28.75 11.67 28.77 11.61 28.82 11.58 C 29.04 11.7 29.31 11.64 29.54 11.75 C 29.69 11.81 29.75 12.03 29.98 11.97 C 29.98 12.1 29.98 12.21 29.98 12.35 C 29.53 12.56 29.21 12.95 28.85 13.3 C 28.7 13.44 28.51 13.55 28.38 13.71 C 28.11 14.04 27.77 14.29 27.42 14.51 C 27.37 14.54 27.31 14.59 27.29 14.64 C 27.17 14.9 26.93 15.05 26.75 15.25 C 26.62 15.4 26.47 15.53 26.3 15.63 C 26.13 15.73 25.99 15.87 25.84 16 C 25.62 16.19 25.38 16.35 25.2 16.57 C 25.08 16.72 24.96 16.85 24.78 16.92 C 24.72 16.95 24.64 17.01 24.62 17.07 C 24.58 17.22 24.43 17.27 24.35 17.38 C 24.27 17.49 24.15 17.55 24.06 17.64 C 23.81 17.89 23.49 18.09 23.36 18.45 C 23.33 18.53 23.26 18.56 23.22 18.62 C 23.02 18.92 22.88 19.24 23.03 19.6 C 23.05 19.65 23.07 19.72 23.05 19.74 C 22.91 19.92 23.01 20.08 23.05 20.25 C 23.14 20.62 23.14 21.01 23.33 21.35 C 23.34 21.37 23.35 21.39 23.35 21.42 C 23.35 21.65 23.38 21.88 23.42 22.12 C 23.46 22.38 23.48 22.64 23.56 22.9 C 23.64 23.18 23.68 23.48 23.82 23.75 C 23.83 23.77 23.82 23.8 23.82 23.83 C 23.76 24.22 23.91 24.59 23.91 24.98 C 23.91 25.2 23.98 25.43 24.06 25.64 C 24.11 25.75 24.13 25.85 24.13 25.96 C 24.12 26.35 24.23 26.72 24.34 27.09 C 24.36 27.15 24.36 27.21 24.36 27.27 C 24.37 27.38 24.38 27.48 24.43 27.59 C 24.5 27.75 24.56 27.94 24.51 28.12 C 24.47 28.27 24.61 28.37 24.59 28.51 C 24.57 28.65 24.66 28.77 24.68 28.86 C 24.59 29.16 24.3 28.97 24.18 29.17 C 24.15 29.03 24.06 29 23.99 28.95 C 23.74 28.76 23.45 28.65 23.2 28.46 C 23.04 28.33 22.84 28.25 22.62 28.2 C 22.49 28.17 22.33 28.14 22.25 27.99 C 22.24 27.97 22.22 27.95 22.2 27.94 C 21.63 27.68 21.15 27.25 20.56 27.01 C 20.45 26.96 20.34 26.89 20.23 26.94 C 19.81 26.63 19.41 26.33 18.92 26.17 C 18.88 26.16 18.82 26.18 18.78 26.13 C 18.53 25.84 18.12 25.78 17.85 25.51 C 17.78 25.44 17.64 25.47 17.55 25.4 C 17.46 25.34 17.35 25.32 17.27 25.24 C 17.07 25.02 16.8 24.95 16.52 24.95 C 16.44 24.95 16.37 24.95 16.31 24.95 C 16.05 24.78 15.82 24.77 15.54 24.85 C 15.34 24.91 15.17 25 14.99 25.09 C 14.61 25.27 14.25 25.46 13.91 25.71 C 13.78 25.81 13.57 25.76 13.48 25.94 C 13.34 25.94 13.22 25.94 13.15 25.94 C 12.94 26.01 12.85 26.18 12.71 26.22 C 12.51 26.28 12.35 26.42 12.16 26.46 C 11.93 26.5 11.79 26.63 11.63 26.78 C 11.33 26.71 11.08 26.87 10.87 27.03 C 10.56 27.26 10.18 27.34 9.86 27.54 C 9.67 27.51 9.59 27.75 9.4 27.72 C 9.33 27.89 9.13 27.81 9.03 27.93 C 8.95 28.03 8.82 28.09 8.67 28.07 C 8.51 28.26 8.27 28.33 8.06 28.44 C 7.87 28.54 7.67 28.63 7.43 28.61 C 7.36 28.82 7.07 28.7 7 28.91 C 6.83 28.91 6.67 28.91 6.49 28.91 C 6.52 28.61 6.41 28.36 6.28 28.1 C 6.3 28.07 6.35 28.04 6.34 27.96 C 6.33 27.8 6.29 27.61 6.35 27.47 C 6.41 27.33 6.36 27.15 6.49 27.03 C 6.5 27.02 6.49 26.98 6.49 26.96 C 6.44 26.6 6.58 26.25 6.58 25.89 C 6.58 25.63 6.68 25.38 6.75 25.12 C 6.76 25.08 6.81 25.04 6.8 24.99 C 6.75 24.79 6.85 24.6 6.89 24.41 C 6.92 24.28 6.95 24.15 6.95 24.02 C 6.95 23.84 6.96 23.66 7.02 23.48 C 7.08 23.29 7.15 23.08 7.11 22.87 C 7.1 22.82 7.13 22.78 7.15 22.73 C 7.21 22.55 7.3 22.37 7.26 22.17 C 7.25 22.08 7.31 22.01 7.33 21.93 C 7.41 21.56 7.53 21.2 7.49 20.81 C 7.48 20.57 7.51 20.4 7.65 20.28 Z" fill="#B8B8B8" />
  </g>
</svg>